{
  "accessors": [
    {
      "bufferView": 2,
      "componentType": 5126,
      "count": 65532,
      "max": [
        4.8220148086547852,
        4.8090591430664062,
        7.6553211212158203
      ],
      "min": [
        -4.7199177742004395,
        -4.8090591430664062,
        -7.6553149223327637
      ],
      "type": "VEC3"
    },
    {
      "bufferView": 2,
      "byteOffset": 786384,
      "componentType": 5126,
      "count": 65532,
      "max": [
        0.99998998641967773,
        0.99998378753662109,
        0.99999219179153442
      ],
      "min": [
        -0.99999690055847168,
        -0.99997097253799438,
        -0.99999582767486572
      ],
      "type": "VEC3"
    },
    {
      "bufferView": 3,
      "componentType": 5126,
      "count": 65532,
      "max": [
        0.99995630979537964,
        0.99996733665466309,
        0.99996942281723022,
        1
      ],
      "min": [
        -0.99989861249923706,
        -0.99998211860656738,
        -0.99992901086807251,
        -1
      ],
      "type": "VEC4"
    },
    {
      "bufferView": 1,
      "componentType": 5126,
      "count": 65532,
      "max": [
        0.99250000715255737,
        0.99000000953674316
      ],
      "min": [
        0.0060780001804232597,
        0.0072690248489379883
      ],
      "type": "VEC2"
    },
    {
      "bufferView": 0,
      "componentType": 5125,
      "count": 363435,
      "max": [
        65531
      ],
      "min": [
        0
      ],
      "type": "SCALAR"
    },
    {
      "bufferView": 2,
      "byteOffset": 1572768,
      "componentType": 5126,
      "count": 11620,
      "max": [
        3.7359859943389893,
        2.4868559837341309,
        0.87225997447967529
      ],
      "min": [
        -3.7463889122009277,
        -4.7311468124389648,
        -7.237119197845459
      ],
      "type": "VEC3"
    },
    {
      "bufferView": 2,
      "byteOffset": 1712208,
      "componentType": 5126,
      "count": 11620,
      "max": [
        0.99861174821853638,
        0.99969416856765747,
        0.99858176708221436
      ],
      "min": [
        -0.99983257055282593,
        -0.9998023509979248,
        -0.99998688697814941
      ],
      "type": "VEC3"
    },
    {
      "bufferView": 3,
      "byteOffset": 1048512,
      "componentType": 5126,
      "count": 11620,
      "max": [
        0.99907904863357544,
        0.99989771842956543,
        0.99996483325958252,
        1
      ],
      "min": [
        -0.99836868047714233,
        -0.99593114852905273,
        -0.99759960174560547,
        -1
      ],
      "type": "VEC4"
    },
    {
      "bufferView": 1,
      "byteOffset": 524256,
      "componentType": 5126,
      "count": 11620,
      "max": [
        0.70960700511932373,
        0.36343502998352051
      ],
      "min": [
        0.0063220001757144928,
        0.0072690248489379883
      ],
      "type": "VEC2"
    },
    {
      "bufferView": 0,
      "byteOffset": 1453740,
      "componentType": 5125,
      "count": 57516,
      "max": [
        11619
      ],
      "min": [
        0
      ],
      "type": "SCALAR"
    },
    {
      "bufferView": 2,
      "byteOffset": 1851648,
      "componentType": 5126,
      "count": 144,
      "max": [
        3.5562958717346191,
        -0.74081188440322876,
        -2.5413269996643066
      ],
      "min": [
        1.4194650650024414,
        -4.15032958984375,
        -3.8525469303131104
      ],
      "type": "VEC3"
    },
    {
      "bufferView": 2,
      "byteOffset": 1853376,
      "componentType": 5126,
      "count": 144,
      "max": [
        0.97411853075027466,
        0.32988983392715454,
        0.96219319105148315
      ],
      "min": [
        -0.3351728618144989,
        -0.38170024752616882,
        -0.93386739492416382
      ],
      "type": "VEC3"
    },
    {
      "bufferView": 3,
      "byteOffset": 1234432,
      "componentType": 5126,
      "count": 144,
      "max": [
        0,
        0,
        0,
        1
      ],
      "min": [
        0,
        0,
        0,
        1
      ],
      "type": "VEC4"
    },
    {
      "bufferView": 0,
      "byteOffset": 1683804,
      "componentType": 5125,
      "count": 216,
      "max": [
        143
      ],
      "min": [
        0
      ],
      "type": "SCALAR"
    }
  ],
  "asset": {
    "extras": {
      "author": "3D_UTPL (https://sketchfab.com/3D_UTPL)",
      "license": "CC-BY-4.0 (http://creativecommons.org/licenses/by/4.0/)",
      "source": "https://sketchfab.com/models/58670b93febb47c6b4449ca6cbefb7a3",
      "title": "Virtopsia Arma Blanca Corazón"
    },
    "generator": "Sketchfab-3.18.5",
    "version": "2.0"
  },
  "bufferViews": [
    {
      "buffer": 0,
      "byteLength": 1684668,
      "byteOffset": 0,
      "name": "floatBufferViews",
      "target": 34963
    },
    {
      "buffer": 0,
      "byteLength": 617216,
      "byteOffset": 1684668,
      "byteStride": 8,
      "name": "floatBufferViews",
      "target": 34962
    },
    {
      "buffer": 0,
      "byteLength": 1855104,
      "byteOffset": 2301884,
      "byteStride": 12,
      "name": "floatBufferViews",
      "target": 34962
    },
    {
      "buffer": 0,
      "byteLength": 1236736,
      "byteOffset": 4156988,
      "byteStride": 16,
      "name": "floatBufferViews",
      "target": 34962
    }
  ],
  "buffers": [
    {
      "byteLength": 5393724,
      "uri": "scene.bin"
    }
  ],
  "images": [
    {
      "uri": "textures/material_baseColor.jpeg"
    }
  ],
  "materials": [
    {
      "doubleSided": true,
      "emissiveFactor": [
        0,
        0,
        0
      ],
      "name": "material",
      "pbrMetallicRoughness": {
        "baseColorFactor": [
          1,
          1,
          1,
          1
        ],
        "baseColorTexture": {
          "index": 0,
          "texCoord": 0
        },
        "metallicFactor": 0,
        "roughnessFactor": 0.76248861290000003
      }
    },
    {
      "doubleSided": true,
      "emissiveFactor": [
        0,
        0,
        0
      ],
      "name": "02_-_Default",
      "pbrMetallicRoughness": {
        "baseColorFactor": [
          0,
          0,
          0,
          1
        ],
        "metallicFactor": 0,
        "roughnessFactor": 0.90842690169999996
      }
    }
  ],
  "meshes": [
    {
      "name": "corazon_armablanca_Map_0",
      "primitives": [
        {
          "attributes": {
            "NORMAL": 1,
            "POSITION": 0,
            "TANGENT": 2,
            "TEXCOORD_0": 3
          },
          "indices": 4,
          "material": 0,
          "mode": 4
        }
      ]
    },
    {
      "name": "corazon_armablanca_Map_0",
      "primitives": [
        {
          "attributes": {
            "NORMAL": 6,
            "POSITION": 5,
            "TANGENT": 7,
            "TEXCOORD_0": 8
          },
          "indices": 9,
          "material": 0,
          "mode": 4
        }
      ]
    },
    {
      "name": "agujero_02 - Default_0",
      "primitives": [
        {
          "attributes": {
            "NORMAL": 11,
            "POSITION": 10,
            "TANGENT": 12
          },
          "indices": 13,
          "material": 1,
          "mode": 4
        }
      ]
    }
  ],
  "nodes": [
    {
      "children": [
        1
      ],
      "name": "RootNode (gltf orientation matrix)",
      "rotation": [
        -0.70710678118654746,
        -0,
        -0,
        0.70710678118654757
      ]
    },
    {
      "children": [
        2
      ],
      "name": "RootNode (model correction matrix)"
    },
    {
      "children": [
        3
      ],
      "matrix": [
        1,
        0,
        0,
        0,
        0,
        0,
        1,
        0,
        0,
        -1,
        0,
        0,
        0,
        0,
        0,
        1
      ],
      "name": "f0e425c2bf4d436ab7c29f3974107f55.fbx"
    },
    {
      "children": [
        4
      ],
      "name": "RootNode"
    },
    {
      "children": [
        5,
        8
      ],
      "matrix": [
        1,
        0,
        0,
        0,
        0,
        2.2204460492503131e-16,
        -1,
        0,
        0,
        1,
        2.2204460492503131e-16,
        0,
        0,
        0,
        0,
        1
      ],
      "name": "Dummy001"
    },
    {
      "children": [
        6,
        7
      ],
      "matrix": [
        11.342575073242188,
        0,
        0,
        0,
        0,
        11.342575073242188,
        0,
        0,
        0,
        0,
        11.342575073242188,
        0,
        0,
        -7.4925952731064172e-07,
        17.141059875488281,
        1
      ],
      "name": "corazon_armablanca"
    },
    {
      "mesh": 0,
      "name": "corazon_armablanca_Map_0"
    },
    {
      "mesh": 1,
      "name": "corazon_armablanca_Map_0"
    },
    {
      "children": [
        9
      ],
      "matrix": [
        11.342575073242188,
        0,
        0,
        0,
        0,
        11.342575073242188,
        0,
        0,
        0,
        0,
        11.342575073242188,
        0,
        0,
        -7.4925952731064172e-07,
        17.141059875488281,
        1
      ],
      "name": "agujero"
    },
    {
      "mesh": 2,
      "name": "agujero_02 - Default_0"
    }
  ],
  "samplers": [
    {
      "magFilter": 9729,
      "minFilter": 9987,
      "wrapS": 10497,
      "wrapT": 10497
    }
  ],
  "scene": 0,
  "scenes": [
    {
      "name": "OSG_Scene",
      "nodes": [
        0
      ]
    }
  ],
  "textures": [
    {
      "sampler": 0,
      "source": 0
    }
  ]
}

